<?xml version="1.0" encoding="UTF-8"?>
<svg version="1.1" xmlns="http://www.w3.org/2000/svg" width="380" height="377">
<path d="M0 0 C125.4 0 250.8 0 380 0 C380 124.41 380 248.82 380 377 C254.6 377 129.2 377 0 377 C0 252.59 0 128.18 0 0 Z " fill="#1E1F22" transform="translate(0,0)"/>
<path d="M0 0 C4.16459062 2.33754441 7.06286114 4.69639592 8.56640625 9.20703125 C9.23691541 16.62659977 9.2061425 23.11568161 4.56640625 29.20703125 C1.08383308 32.97844343 -2.10194033 35.88390074 -7.43359375 36.20703125 C-7.43359375 36.86703125 -7.43359375 37.52703125 -7.43359375 38.20703125 C-6.51126953 38.09875 -6.51126953 38.09875 -5.5703125 37.98828125 C-4.76207031 37.89546875 -3.95382813 37.80265625 -3.12109375 37.70703125 C-2.32058594 37.61421875 -1.52007812 37.52140625 -0.6953125 37.42578125 C1.56640625 37.20703125 1.56640625 37.20703125 4.56640625 37.20703125 C5.06140625 39.68203125 5.06140625 39.68203125 5.56640625 42.20703125 C1.70958966 45.19295377 -1.41562047 45.72842514 -6.1484375 45.5625 C-10.0019244 44.9630687 -12.28733701 43.51856682 -15.43359375 41.20703125 C-15.89765625 40.15515625 -15.89765625 40.15515625 -16.37109375 39.08203125 C-16.72171875 38.46328125 -17.07234375 37.84453125 -17.43359375 37.20703125 C-19.39605733 36.78183081 -21.35925835 36.35933434 -23.328125 35.96484375 C-27.11248279 34.60275579 -29.30682486 31.51125004 -31.43359375 28.20703125 C-33.64525627 21.57204368 -32.8330146 15.51319219 -29.7734375 9.28515625 C-23.25559604 -0.82414887 -11.199342 -3.6492238 0 0 Z " fill="#E5E1D4" transform="translate(143.43359375,165.79296875)"/>
<path d="M0 0 C2.97 0 5.94 0 9 0 C8.01 5.28 7.02 10.56 6 16 C7.11375 15.030625 8.2275 14.06125 9.375 13.0625 C10.48681641 12.11890625 10.48681641 12.11890625 11.62109375 11.15625 C14.05271377 9.03554071 14.05271377 9.03554071 16.16015625 6.53125 C19.91416283 2.46172657 22.79313181 -0.14485473 28.41796875 -0.5703125 C32.66668839 -0.70328214 36.71530733 -0.30604948 41 0 C42.98 4.95 44.96 9.9 47 15 C50.55166371 11.44833629 52.98187706 8.67998501 55.75 4.6875 C59.23716402 0.19544711 59.23716402 0.19544711 62.515625 -0.64453125 C64.76162965 -0.62687398 66.80367391 -0.45756794 69 0 C67.66385723 2.89178902 66.14965926 5.20945644 64.1015625 7.64453125 C63.53953125 8.32193359 62.9775 8.99933594 62.3984375 9.69726562 C61.22513978 11.09669451 60.05067801 12.49514835 58.875 13.89257812 C53.98489111 19.79308623 49.90382485 25.14918227 48.75 32.9375 C48.60046875 33.89527344 48.4509375 34.85304687 48.296875 35.83984375 C48.19890625 36.55269531 48.1009375 37.26554687 48 38 C45.03 38 42.06 38 39 38 C39.23009766 36.45505859 39.23009766 36.45505859 39.46484375 34.87890625 C40.89424383 22.90962844 38.35853355 14.67697833 33 4 C28.88157527 6.26626297 25.62861358 8.99514161 22.1875 12.1875 C21.68541016 12.65091797 21.18332031 13.11433594 20.66601562 13.59179688 C19.44043171 14.72400297 18.21970658 15.86146479 17 17 C18.61472935 21.78850772 21.2870199 25.624197 24.125 29.75 C29 36.88119835 29 36.88119835 29 38 C25.35843107 38.97625039 22.6141464 39.16238762 19 38 C14.8289598 34.06130634 11.92763022 28.88353636 9 24 C5.30131399 26.54116753 5.30131399 26.54116753 3.109375 30.32421875 C2.99078125 31.10410156 2.8721875 31.88398438 2.75 32.6875 C2.05283757 36.94716243 2.05283757 36.94716243 1 38 C-1.67058851 38.14115161 -4.32432238 38.04247107 -7 38 C-6.29244778 29.84075853 -4.63787499 21.9395529 -2.9375 13.9375 C-2.65260708 12.5814616 -2.36809891 11.22534232 -2.08398438 9.86914062 C-1.3930909 6.57861406 -0.69833305 3.28895426 0 0 Z " fill="#E2DED1" transform="translate(261,165)"/>
<path d="M0 0 C2.97 0 5.94 0 9 0 C8.67515625 1.64935547 8.67515625 1.64935547 8.34375 3.33203125 C5.79095512 15.58431934 5.79095512 15.58431934 6 28 C7.87046826 30.29926298 7.87046826 30.29926298 10.875 30.25 C14.80741565 30.0109654 14.80741565 30.0109654 18 28 C20.59615996 21.95602972 21.98304547 15.94875268 23.1875 9.5 C23.36474609 8.5821875 23.54199219 7.664375 23.72460938 6.71875 C24.15596624 4.48035762 24.57886766 2.24033854 25 0 C27.97 0 30.94 0 34 0 C33.0123882 6.861303 31.72602232 13.63253416 30.125 20.375 C29.90118652 21.37273437 29.90118652 21.37273437 29.67285156 22.390625 C28.39506799 27.59582926 26.42375001 31.93981249 22.28125 35.4609375 C16.43555476 38.46070216 10.48507598 38.9928875 4 38 C-0.12511438 36.12713785 -2.10548544 34.11188852 -4 30 C-5.74318691 20.02771451 -2.39487677 9.62227276 0 0 Z " fill="#E3DFD2" transform="translate(162,165)"/>
<path d="M0 0 C1.8984375 1.1015625 1.8984375 1.1015625 4.4609375 3.1015625 C4.2734375 4.9140625 4.2734375 4.9140625 3.4609375 7.1015625 C0.8984375 8.8515625 0.8984375 8.8515625 -1.5390625 10.1015625 C-2.09722656 9.61558594 -2.65539062 9.12960938 -3.23046875 8.62890625 C-7.09281658 6.07361352 -11.06691307 6.44197482 -15.5390625 7.1015625 C-19.20532136 9.2402135 -20.91247983 11.24987107 -22.5390625 15.1015625 C-23.34733897 19.85763142 -23.2007421 23.11906854 -20.4765625 27.1640625 C-16.7705508 29.6084532 -14.9096758 29.71498191 -10.5390625 29.1015625 C-9.4871875 28.5653125 -8.4353125 28.0290625 -7.3515625 27.4765625 C-4.5390625 26.1015625 -4.5390625 26.1015625 -2.2890625 26.7265625 C-0.5390625 28.1015625 -0.5390625 28.1015625 1.4609375 31.1015625 C-5.88765716 37.22539139 -11.00861268 37.85021379 -20.5390625 37.1015625 C-25.85400543 35.39318799 -28.29513348 32.45769576 -31.5390625 28.1015625 C-33.7665888 23.6465099 -33.21831329 17.5034915 -31.890625 12.80859375 C-26.2623857 0.37355222 -12.75923699 -4.51480693 0 0 Z " fill="#E5E1D3" transform="translate(248.5390625,165.8984375)"/>
<path d="M0 0 C1.37478516 0.01740234 1.37478516 0.01740234 2.77734375 0.03515625 C3.69644531 0.04417969 4.61554688 0.05320313 5.5625 0.0625 C6.27277344 0.07410156 6.98304687 0.08570313 7.71484375 0.09765625 C6.19008693 4.15181047 4.30231746 7.90573065 2.265625 11.7265625 C1.76206734 12.67208229 1.76206734 12.67208229 1.24833679 13.63670349 C0.53767435 14.9694975 -0.17428151 16.30160255 -0.88745117 17.63305664 C-1.95532788 19.62778787 -3.01801259 21.62521683 -4.08007812 23.62304688 C-5.79553394 26.84366086 -7.53489165 30.05054256 -9.28555298 33.25213623 C-10.26639517 35.06301856 -11.22122143 36.88595201 -12.17456055 38.71142578 C-12.765354 39.80181152 -13.35614746 40.89219727 -13.96484375 42.015625 C-14.47644043 42.98137451 -14.98803711 43.94712402 -15.51513672 44.94213867 C-17.28515625 47.09765625 -17.28515625 47.09765625 -20.04760742 47.81079102 C-22.57861548 47.8456712 -24.81536148 47.63435209 -27.28515625 47.09765625 C-25.64706971 41.20834513 -22.73720149 36.15488512 -19.78515625 30.84765625 C-19.25559326 29.88706299 -18.72603027 28.92646973 -18.18041992 27.93676758 C-17.08920837 25.95934416 -15.99569189 23.98319098 -14.89990234 22.00830078 C-13.362804 19.23761943 -11.83272462 16.46318635 -10.3046875 13.6875 C-9.40272737 12.05317365 -8.50040321 10.41904812 -7.59765625 8.78515625 C-7.17613281 8.02106445 -6.75460938 7.25697266 -6.3203125 6.46972656 C-2.79398649 0.11940113 -2.79398649 0.11940113 0 0 Z " fill="#EC4F38" transform="translate(103.28515625,163.90234375)"/>
<path d="M0 0 C1.37478516 0.01740234 1.37478516 0.01740234 2.77734375 0.03515625 C3.69644531 0.04417969 4.61554688 0.05320313 5.5625 0.0625 C6.27277344 0.07410156 6.98304687 0.08570313 7.71484375 0.09765625 C6.40147327 3.50582231 4.93313978 6.74569058 3.24609375 9.984375 C2.76180908 10.91491699 2.27752441 11.84545898 1.77856445 12.80419922 C1.26253662 13.78791504 0.74650879 14.77163086 0.21484375 15.78515625 C-0.31471924 16.79723145 -0.84428223 17.80930664 -1.38989258 18.85205078 C-4.84707383 25.43159734 -8.36666828 31.97347638 -11.97265625 38.47265625 C-12.39417969 39.23280029 -12.81570312 39.99294434 -13.25 40.77612305 C-16.15256794 45.96506794 -16.15256794 45.96506794 -17.28515625 47.09765625 C-18.97124591 47.16971136 -20.66016284 47.18151693 -22.34765625 47.16015625 C-23.26675781 47.15113281 -24.18585937 47.14210937 -25.1328125 47.1328125 C-25.84308594 47.12121094 -26.55335937 47.10960937 -27.28515625 47.09765625 C-22.05203352 36.32155483 -16.48067259 25.73095908 -10.84765625 15.16015625 C-10.48341553 14.47524109 -10.1191748 13.79032593 -9.74389648 13.08465576 C-8.69861608 11.12037714 -7.65062004 9.157576 -6.6015625 7.1953125 C-5.98740479 6.04554932 -5.37324707 4.89578613 -4.74047852 3.71118164 C-2.7391164 0.11705626 -2.7391164 0.11705626 0 0 Z " fill="#EC4F38" transform="translate(80.28515625,163.90234375)"/>
<path d="M0 0 C3.09743693 4.29644477 2.72998777 8.57706487 1.9375 13.6875 C0.1317807 17.57674158 -1.32997547 19.19915031 -4.875 21.5625 C-8.599451 22.87701212 -11.13999973 23.18672731 -15.0625 22.6875 C-17.81579021 20.89187595 -19.58877461 19.63495078 -21.0625 16.6875 C-21.75833714 11.80669947 -21.64984301 7.89286894 -18.8125 3.75 C-14.10248693 -2.39918373 -6.81567666 -2.92100428 0 0 Z " fill="#222326" transform="translate(141.0625,173.3125)"/>
<path d="M0 0 C2.97 0 5.94 0 9 0 C8.29244778 8.15924147 6.63787499 16.0604471 4.9375 24.0625 C4.65260708 25.4185384 4.36809891 26.77465768 4.08398438 28.13085938 C3.3930909 31.42138594 2.69833305 34.71104574 2 38 C-0.97 38 -3.94 38 -7 38 C-5.61132636 29.38511654 -4.04152269 20.81515148 -2.375 12.25 C-2.14554688 11.0640625 -1.91609375 9.878125 -1.6796875 8.65625 C-1.12116756 5.77056366 -0.561252 2.88515598 0 0 Z " fill="#E1DED0" transform="translate(204,165)"/>
</svg>
